<?xml version="1.0" encoding="utf-8"?><svg xmlns="http://www.w3.org/2000/svg" width="70" height="70" viewBox="0 0 181.5 173.4"><title>Equal Housing Opportunity</title><path fill="#5a5b5b" d="M20.8 141.7h-7.1v2.8h6.5v2.4h-6.5v3.4h7.4v2.4H11v-13.4h9.8v2.4zm9 7.4l1.3 1.3c-.5.3-1 .4-1.5.4-1.5 0-3.6-.9-3.6-4.7 0-3.7 2.1-4.7 3.6-4.7s3.6.9 3.6 4.7c0 1.3-.2 2.2-.6 2.9l-1.4-1.3-1.4 1.4zm6.3 3.1l-1.5-1.4c.8-1 1.4-2.6 1.4-4.8 0-6.3-4.7-7-6.4-7-1.8 0-6.4.8-6.4 7 0 6.3 4.7 7 6.4 7 .8 0 2.2-.1 3.4-.9l1.6 1.5 1.5-1.4zm13.1-4.2c0 3.5-2.1 5-5.5 5-1.2 0-3.1-.3-4.2-1.6-.7-.8-1-1.9-1-3.2v-8.9h2.8v8.7c0 1.9 1.1 2.7 2.4 2.7 1.9 0 2.7-.9 2.7-2.6v-8.8h2.9v8.7h-.1zm7.5-5.6l1.7 5.3H55l1.7-5.3zm-2.5 7.6h4.9l.9 2.8h3l-4.7-13.4h-3.2l-4.8 13.4h2.9l1-2.8zm13.8.3h6.7v2.4h-9.5v-13.4H68v11zm17.3-3.6v6h-2.8v-13.4h2.8v5.1h5.2v-5.1h2.8v13.4h-2.8v-6h-5.2zm13.3-.7c0-3.7 2.1-4.7 3.6-4.7s3.6.9 3.6 4.7c0 3.7-2.1 4.7-3.6 4.7-1.4 0-3.6-.9-3.6-4.7zm-2.8 0c0 6.3 4.7 7 6.4 7 1.8 0 6.4-.8 6.4-7 0-6.3-4.7-7-6.4-7-1.7 0-6.4.8-6.4 7zm26.2 2c0 3.5-2.1 5-5.5 5-1.2 0-3.1-.3-4.2-1.6-.7-.8-1-1.9-1-3.2v-8.9h2.8v8.7c0 1.9 1.1 2.7 2.4 2.7 1.9 0 2.7-.9 2.7-2.6v-8.8h2.9v8.7h-.1zm5.1.6c0 .7.4 2.2 2.8 2.2 1.3 0 2.8-.3 2.8-1.7 0-1-1-1.3-2.4-1.7l-1.4-.3c-2.2-.5-4.3-1-4.3-3.9 0-1.5.8-4.1 5.1-4.1 4.1 0 5.2 2.7 5.2 4.3h-2.7c-.1-.6-.3-2-2.7-2-1.1 0-2.3.4-2.3 1.6 0 1 .9 1.3 1.4 1.4l3.3.8c1.8.4 3.5 1.2 3.5 3.6 0 4-4.1 4.4-5.3 4.4-4.9 0-5.7-2.8-5.7-4.5h2.7v-.1zm13.4 4.1h-2.7v-13.4h2.7v13.4zm11.2-13.4h2.6v13.4h-2.8l-5.4-9.5h-.1v9.5h-2.6v-13.4h3l5.3 9.4v-9.4zm12 6.2h5.6v7.2h-1.9l-.3-1.7c-.7.8-1.7 2-4.2 2-3.2 0-6.1-2.3-6.1-7 0-3.6 2-7.1 6.5-7.1 4.1 0 5.7 2.7 5.9 4.5h-2.8c0-.5-1-2.2-2.9-2.2-2 0-3.8 1.4-3.8 4.8 0 3.7 2 4.6 3.9 4.6.6 0 2.7-.2 3.2-2.9h-3.1v-2.2zM13.2 166.4c0-3.7 2.1-4.7 3.6-4.7s3.6.9 3.6 4.7c0 3.7-2.1 4.7-3.6 4.7-1.5-.1-3.6-1-3.6-4.7zm-2.8 0c0 6.3 4.7 7 6.4 7 1.8 0 6.4-.8 6.4-7 0-6.3-4.7-7-6.4-7-1.7-.1-6.4.7-6.4 7zm20.5-.5V162h2.2c1.7 0 2.5.5 2.5 1.8 0 .6 0 2.1-2.1 2.1h-2.6zm0 2.3h3.2c3.6 0 4.3-3.1 4.3-4.3 0-2.6-1.6-4.3-4.2-4.3h-6.1V173h2.8v-4.8zm15.1-2.3V162h2.2c1.7 0 2.5.5 2.5 1.8 0 .6 0 2.1-2.1 2.1H46zm0 2.3h3.2c3.6 0 4.3-3.1 4.3-4.3 0-2.6-1.6-4.3-4.2-4.3h-6.1V173H46v-4.8zm14.4-1.8c0-3.7 2.1-4.7 3.6-4.7s3.6.9 3.6 4.7c0 3.7-2.1 4.7-3.6 4.7-1.5-.1-3.6-1-3.6-4.7zm-2.8 0c0 6.3 4.7 7 6.4 7 1.8 0 6.4-.8 6.4-7 0-6.3-4.7-7-6.4-7-1.7-.1-6.4.7-6.4 7zm20.5-.8V162h3.5c1.6 0 2 1 2 1.8 0 1.3-.7 1.8-2.2 1.8h-3.3zm-2.8 7.4H78v-5.2h3c2.1 0 2.2.7 2.2 2.5 0 1.4.1 2.1.3 2.7h3.1v-.4c-.6-.2-.6-.7-.6-2.7 0-2.5-.6-2.9-1.7-3.4 1.3-.4 2.1-1.7 2.1-3.2 0-1.2-.6-3.8-4.2-3.8h-6.8V173h-.1zm21.4 0h-2.8v-11h-4v-2.3h10.9v2.3h-4.1v11zm19-4.6c0 3.5-2.1 5-5.5 5-1.2 0-3-.3-4.2-1.6-.7-.8-1-1.9-1-3.2v-8.9h2.8v8.7c0 1.9 1.1 2.7 2.4 2.7 1.9 0 2.7-.9 2.7-2.6v-8.8h2.9v8.7h-.1zm13.6-8.7h2.6V173h-2.8l-5.5-9.5v9.5H121v-13.3h2.9l5.3 9.3h.1v-9.3zm10.5 13.3H137v-13.3h2.8V173zm10.9 0h-2.8v-11h-4.1v-2.3h10.9v2.3h-4v11zm14.6 0h-2.8v-5l-4.6-8.3h3.3l2.7 5.8 2.7-5.8h3.2l-4.5 8.3v5zM90.1 0L0 44.4v20.8h10.1v62.5h159.3V65.2h12.1V44.4L90.1 0zm59.8 108.9H29.6V51.8l60.5-30.9 59.8 30.9v57.1z"/><path fill="#5a5b5b" d="M117.6 71.9H61.8V51.8h55.8v20.1zm0 28.9H61.8V80.6h55.8v20.2z"/></svg>