<?xml version="1.0" encoding="utf-8"?><svg xmlns="http://www.w3.org/2000/svg" width="65" height="120" class="Layer_1" viewBox="0 0 76 139"><style>.st0{fill:#ef4623}.st1{fill:none;stroke:#000;stroke-width:.179}.st2{fill:#77787b}.st3{fill:#757679}</style><path d="M10.98 65.69V32.23H5.99v-5.91h11.55v39.37h-6.56zm20.01 0c-1.77 0-3.35-.72-4.53-1.84a6.564 6.564 0 0 1-2.03-4.72V32.88c0-1.84.79-3.48 1.97-4.66a6.497 6.497 0 0 1 4.59-1.9h6.56c1.84 0 3.48.72 4.66 1.97a6.497 6.497 0 0 1 1.9 4.59v26.25c0 1.84-.79 3.54-2.03 4.72-1.18 1.12-2.76 1.84-4.53 1.84h-6.56zm6.57-31.83c0-.85-.79-1.64-1.64-1.64h-3.28c-.85 0-1.64.79-1.64 1.64v24.28c0 .85.79 1.64 1.64 1.64h3.28c.85 0 1.64-.79 1.64-1.64V33.86zM55.6 65.69c-1.77 0-3.35-.72-4.53-1.84a6.564 6.564 0 0 1-2.03-4.72V32.88c0-1.84.79-3.48 1.97-4.66a6.497 6.497 0 0 1 4.59-1.9h6.56c1.84 0 3.48.72 4.66 1.97a6.497 6.497 0 0 1 1.9 4.59v26.25c0 1.84-.79 3.54-2.03 4.72-1.18 1.12-2.76 1.84-4.53 1.84H55.6zm6.57-31.83c0-.85-.79-1.64-1.64-1.64h-3.28c-.85 0-1.64.79-1.64 1.64v24.28c0 .85.79 1.64 1.64 1.64h3.28c.85 0 1.64-.79 1.64-1.64V33.86zM5.87 94.17V66.91h8.18c1.09 0 2.11.47 2.81 1.21.66.7 1.09 1.64 1.09 2.69v5.42c0 1.91-1.28 3.43-2.96 3.7v.2c1.68.12 3.35 1.67 3.35 3.82v6.35c0 1.09-.47 2.1-1.21 2.81-.7.66-1.64 1.09-2.69 1.09l-8.57-.03zm8.18-22.78c0-.5-.47-.97-.97-.97H9.77v7.98h3.31c.5 0 .97-.47.97-.97v-6.04zm.39 12.46c0-1.01-.94-1.94-1.95-1.94H9.77v8.76h3.7c.5 0 .97-.47.97-.97v-5.85zm10.98 10.32V66.91h9.74v3.51h-5.84v7.98h4.75v3.51h-4.75v8.76h5.84v3.51l-9.74-.01zm19.09 0c-1.13 0-2.03-.43-2.73-1.13-.74-.7-1.17-1.64-1.17-2.77v-3.89h3.89v3.31c0 .5.43.97.97.97h2.34c.5 0 .97-.47.97-.97v-4.52c0-.94-.54-1.64-.97-1.91l-3.35-2.22c-1.98-1.32-3.85-2.65-3.85-5.33V70.8c0-1.13.43-2.07 1.17-2.77.7-.7 1.6-1.13 2.73-1.13h4.28c1.09 0 2.03.43 2.77 1.17.7.7 1.13 1.64 1.13 2.73v3.89H48.8v-3.31c0-.5-.47-.97-.97-.97h-2.34c-.5 0-.97.47-.97.97v3.7c0 .97.5 1.64.97 1.94l3.27 2.07c2.03 1.32 3.93 2.81 3.93 5.53v5.65c0 1.09-.43 2.03-1.13 2.73-.74.74-1.67 1.17-2.77 1.17h-4.28zm16.67 0V70.41h-3.89V66.9h11.68v3.51h-3.89v23.76h-3.9z" class="st0"/><path d="M5.71 124.59h22.97m-22.97 1.17h22.97m-22.97 1.2h22.97m17.93-2.56h22.58m-22.58 1.17h22.58m-22.58 1.19h22.58" class="st1"/><path d="M7.3 107.69c-.41 0-.79-.16-1.08-.43-.3-.29-.51-.7-.51-1.16v-7.95c0-.43.17-.81.45-1.1.29-.3.7-.5 1.15-.5h1.75c.45 0 .86.19 1.15.5.27.29.45.67.45 1.1v1.59h-1.6v-1.35c0-.21-.19-.4-.4-.4h-.95c-.21 0-.4.19-.4.4v7.47c0 .21.19.4.4.4h.95c.21 0 .4-.19.4-.4v-1.35h1.59v1.59a1.6 1.6 0 0 1-1.59 1.6l-1.76-.01zm7.23 0c-.45 0-.83-.17-1.13-.48-.29-.29-.46-.67-.46-1.12v-7.95c0-.45.17-.83.46-1.12.3-.3.68-.48 1.13-.48h1.75c.46 0 .83.17 1.12.46.3.29.48.67.48 1.13v7.95c0 .46-.17.83-.46 1.12-.29.3-.67.48-1.13.48l-1.76.01zm1.75-9.3c0-.21-.19-.4-.4-.4h-.95c-.21 0-.4.19-.4.4v7.47c0 .21.19.4.4.4h.95c.22 0 .4-.19.4-.4v-7.47zm10.26 9.3v-5.8l.13-2.5h-.09l-.57 2.7-.99 4.01h-1.3l-.99-4.01-.57-2.7h-.09l.13 2.5v5.8h-1.45V96.56h2.02l1.29 5.26.24 1.64h.16l.24-1.64 1.29-5.26H28v11.13h-1.46zm4.48 0V96.56h3.35c.41 0 .81.17 1.12.46.29.29.46.68.46 1.13v2.94c0 .45-.17.83-.46 1.13-.3.29-.68.46-1.13.46h-1.75v5.01h-1.59zm3.34-9.3c0-.21-.19-.4-.4-.4h-1.35v3.26h1.33c.21 0 .4-.19.41-.41v-2.45zm6.8 9.3l-.25-1.75h-1.89l-.24 1.75h-1.65l1.97-11.13h1.75l1.97 11.13h-1.66zm-1.02-7.16l-.13-1.56h-.09l-.13 1.56-.57 3.97h1.48l-.56-3.97zm8.65 7.16l-2.03-6.36-.38-1.59h-.09l.27 4.51v3.43h-1.59V96.56h1.59l2.05 6.36.37 1.59h.11l-.29-4.55v-3.4h1.59v11.13h-1.6zm4.63 0V96.56h1.59v11.13h-1.59zm4.62 0V96.56h3.97v1.43h-2.39v3.26h1.94v1.43h-1.94v3.58h2.39v1.43h-3.97zm7.68 0c-.46 0-.83-.17-1.12-.46-.3-.29-.48-.67-.48-1.13v-1.59h1.59v1.35c0 .21.17.4.4.4h.95c.21 0 .4-.19.4-.4v-1.84c0-.38-.22-.67-.4-.78l-1.37-.91c-.81-.54-1.57-1.08-1.57-2.18v-2c0-.46.17-.84.48-1.13.29-.29.65-.46 1.12-.46h1.75c.45 0 .83.17 1.13.48.29.29.46.67.46 1.12v1.59h-1.59V98.4c0-.21-.19-.4-.4-.4h-.95c-.21 0-.4.19-.4.4v1.51c0 .4.21.67.4.79l1.33.84c.83.54 1.61 1.15 1.61 2.26v2.31c0 .45-.17.83-.46 1.12-.3.3-.68.48-1.13.48h-1.74v-.02zM7.21 119.61v-8.24H5.85v-1.22H9.9v1.22H8.56v8.24H7.21zm5.69 0c-.38 0-.7-.15-.96-.41-.25-.25-.39-.57-.39-.95v-6.75c0-.38.15-.7.39-.95.26-.26.58-.41.96-.41h1.49c.39 0 .7.15.95.39.26.24.41.57.41.96v6.75c0 .39-.15.7-.39.95-.25.26-.57.41-.96.41h-1.5zm1.48-7.9c0-.17-.16-.34-.34-.34h-.81c-.17 0-.34.16-.34.34v6.35c0 .17.16.34.34.34h.81c.19 0 .34-.16.34-.34v-6.35zm10.51 7.9l-.74-5.55-.11-1.32h-.08l-.11 1.32-.77 5.55h-1.35l-1.49-9.46h1.42l.65 5.67.07 1.32h.08l.15-1.32.7-5.67h1.34l.71 5.67.15 1.32h.08l.07-1.32.65-5.67h1.42l-1.49 9.46h-1.35zm5.95 0c-.38 0-.7-.15-.96-.41-.25-.25-.39-.57-.39-.95v-6.75c0-.38.15-.7.39-.95.26-.26.58-.41.96-.41h1.49c.39 0 .7.15.95.39.26.24.41.57.41.96v6.75c0 .39-.15.7-.39.95-.25.26-.57.41-.96.41h-1.5zm1.49-7.9c0-.17-.16-.34-.34-.34h-.81c-.17 0-.34.16-.34.34v6.35c0 .17.16.34.34.34h.81c.19 0 .34-.16.34-.34v-6.35zm6.92 7.9l-1.12-4.26h-.67v4.26H36.1v-9.46h2.85c.35 0 .69.15.95.39.24.24.39.58.39.96v2.28c0 .41-.16.72-.38.95-.15.13-.33.25-.5.3l1.26 4.58h-1.42zm-.32-7.9c0-.17-.16-.34-.34-.34h-1.15v2.77h1.13c.17 0 .34-.16.35-.35v-2.08zm7.23 7.9l-1.55-4.12-.49.91v3.22h-1.35v-9.46h1.35v4.32h.05l2-4.32h1.54l-2.2 4.09 2.2 5.36h-1.55zm5.96 0v-9.46h3.38v1.22h-2.03v2.77h1.65v1.22h-1.65v4.26l-1.35-.01zm6.47 0c-.38 0-.7-.15-.96-.41-.24-.25-.39-.57-.39-.95v-6.75c0-.38.15-.7.39-.95.26-.26.58-.41.96-.41h1.49c.39 0 .7.15.95.39.26.24.41.57.41.96v6.75c0 .39-.15.7-.39.95-.24.26-.57.41-.96.41h-1.5zm1.49-7.9c0-.17-.16-.34-.34-.34h-.81c-.17 0-.34.16-.34.34v6.35c0 .17.16.34.34.34h.81c.19 0 .34-.16.34-.34v-6.35zm6.92 7.9l-1.12-4.26h-.67v4.26h-1.35v-9.46h2.85c.35 0 .69.15.95.39.25.24.39.58.39.96v2.28c0 .41-.16.72-.38.95-.15.13-.33.25-.5.3l1.26 4.58H67zm-.31-7.9c0-.17-.16-.34-.34-.34H65.2v2.77h1.13c.17 0 .34-.16.35-.35l.01-2.08zM70.29 110.9c0 .29-.22.7-.78.7-.55 0-.77-.41-.77-.7v-.26c0-.28.22-.7.77-.7.56 0 .78.41.78.7v.26zm-.18-.26c0-.25-.18-.54-.6-.54-.41 0-.59.29-.59.54v.26c0 .25.18.54.59.54.42 0 .6-.29.6-.54v-.26zm-.37.56l-.19-.35h-.21v.36h-.17v-.87h.44c.1 0 .22.09.22.22v.03c0 .1-.04.19-.14.21l.22.41-.17-.01zm-.08-.66c0-.03-.03-.06-.06-.06h-.25v.21h.24c.03 0 .06-.04.06-.07l.01-.08z"/><path d="M68.48 10.79v-.26M57 10.21v7.69l-2.42-7.69H52.2V24.3h2.38v-6.9l2.16 6.9h2.64V10.21zM6.04 24.3h2.38v-6.04h2.22v-2.38H8.42V12.6h3.43v-2.39H6.23m10.34 10.98v-7.86c0-.51.41-.93.93-.93.51 0 .92.41.92.92v7.86c0 .51-.41.93-.93.93s-.92-.41-.92-.92m-2.39-7.86v7.86c0 1.83 1.49 3.31 3.31 3.31s3.31-1.48 3.31-3.31v-7.86c0-1.83-1.48-3.31-3.31-3.31s-3.31 1.48-3.31 3.31m25.59-3.12h-6.61v2.39h2.11v11.7h2.39V12.6h2.11zm6.99 0v10.97c0 .51-.41.93-.93.93s-.93-.41-.93-.93V10.21h-2.39v10.97c0 1.83 1.49 3.31 3.31 3.31 1.83 0 3.31-1.49 3.31-3.31V10.21h-2.37zm21.57 2.39v-2.39H62.5V24.3h5.83v-2.38h-3.44v-3.66h2.21v-2.38h-2.21V12.6zM30.89 24.3h-2.47l-1.77-6.69s1.52-.27 1.52-1.89v-2.2c0-.51-.41-.92-.92-.92h-.92v11.7h-2.39V10.21h3.3a3.32 3.32 0 0 1 3.31 3.17h.01v2.3h-.01c0 1.39-.45 2.39-1.29 3.03l1.63 5.59z" class="st2"/><path d="M30.02 128.98v-1.49c0-.72.55-1.1 1.07-1.46l.78-.54a.63.63 0 0 0 .26-.51v-.97c0-.13-.12-.26-.26-.26h-.53c-.14 0-.26.12-.26.26v.87h-1.06v-1.03c0-.28.12-.54.31-.72.19-.18.45-.31.75-.31h1.06c.29 0 .57.12.76.32.18.18.29.43.29.71v1.28c0 .72-.53 1.03-1.05 1.41l-.8.58a.63.63 0 0 0-.26.51v.41h2.11v.92l-3.17.02zm5.32 0c-.29 0-.54-.11-.73-.29-.2-.18-.33-.45-.33-.74v-4.1c0-.29.12-.54.32-.73.19-.18.45-.3.74-.3h1.06c.29 0 .56.11.75.31.19.18.31.44.31.72v4.1c0 .29-.12.55-.33.74-.19.17-.45.29-.73.29h-1.06zm1.06-4.97c0-.13-.12-.26-.26-.26h-.53c-.14 0-.26.12-.26.26v3.8c0 .13.12.26.26.26h.53c.14 0 .26-.12.26-.26v-3.8zm2.79 4.97v-5.23h-.8v-.92h1.86v6.16l-1.06-.01zm3.48 0c-.29 0-.54-.11-.73-.29-.2-.18-.33-.45-.33-.74v-1.16c0-.57.45-.97.91-1v-.05c-.45-.07-.86-.47-.86-.97v-.91c0-.28.12-.54.31-.72.19-.18.45-.31.75-.31h1.06c.29 0 .56.12.75.31.19.18.31.44.31.72v.91c0 .5-.4.9-.86.97v.05c.45.03.91.44.91 1v1.16c0 .29-.12.55-.33.74-.19.17-.45.29-.73.29h-1.16zm1.16-2.44c0-.15-.12-.28-.26-.28h-.63c-.14 0-.26.12-.26.26v1.28c0 .13.12.26.26.26h.63c.14 0 .26-.12.26-.26v-1.26zm-.06-2.53c0-.13-.12-.26-.26-.26h-.53c-.14 0-.26.12-.26.26v1.08c0 .13.12.26.26.26h.53c.14 0 .26-.12.26-.26v-1.08z" class="st3"/></svg>