<?xml version="1.0" encoding="UTF-8"?>
<svg width="84px" height="83px" viewBox="0 0 84 83" version="1.1" xmlns="http://www.w3.org/2000/svg" xmlns:xlink="http://www.w3.org/1999/xlink">
    <!-- Generator: Sketch 53.2 (72643) - https://sketchapp.com -->
    <title>Group 22</title>
    <desc>Created with Sketch.</desc>
    <defs>
        <polygon id="path-1" points="2.54601227e-05 0.0589603659 27.4821911 0.0589603659 27.4821911 27.5376793 2.54601227e-05 27.5376793"></polygon>
        <polygon id="path-3" points="0.0238052147 0.104635671 27.1375629 0.104635671 27.1375629 27.5823171 0.0238052147 27.5823171"></polygon>
        <polygon id="path-5" points="0.0450389571 0.0589603659 27.6914224 0.0589603659 27.6914224 55.0159174 0.0450389571 55.0159174"></polygon>
    </defs>
    <g id="Page-1" stroke="none" stroke-width="1" fill="none" fill-rule="evenodd">
        <g id="Artboard" transform="translate(-519.000000, -819.000000)">
            <g id="Group-22" transform="translate(519.500000, 819.000000)">
                <g id="Group-3" transform="translate(0.000000, 0.194088)">
                    <mask id="mask-2" fill="white">
                        <use xlink:href="#path-1"></use>
                    </mask>
                    <g id="Clip-2"></g>
                    <path d="M27.4821911,0.22207561 C27.1990745,0.116807317 26.8976267,0.0588591463 26.5895592,0.0588591463 L1.82016963,0.0588591463 C0.815003988,0.0588591463 2.54601227e-05,0.868868293 2.54601227e-05,1.86790488 L2.54601227e-05,27.5376793 L27.4821911,0.22207561 Z" id="Fill-1" fill="#00AE4D" mask="url(#mask-2)"></path>
                </g>
                <g id="Group-6" transform="translate(0.509202, 55.105674)">
                    <mask id="mask-4" fill="white">
                        <use xlink:href="#path-3"></use>
                    </mask>
                    <g id="Clip-5"></g>
                    <path d="M0.0238052147,27.0523064 C0.353259202,27.3797515 0.808231595,27.5824436 1.31106902,27.5824436 L25.3174187,27.5819375 C26.3225844,27.5819375 27.1375629,26.7719284 27.1375629,25.7726387 L27.1375629,0.104635671 L0.0238052147,27.0523064 Z" id="Fill-4" fill="#00AE4D" mask="url(#mask-4)"></path>
                </g>
                <path d="M55.2935307,27.7317171 L55.2935307,82.4570585 C55.3475061,82.4813512 55.4022454,82.5038726 55.4580031,82.5246226 L82.9399141,55.2100311 L55.2935307,27.7317171 Z" id="Fill-7" fill="#00682C"></path>
                <path d="M27.6467908,55.2102588 L27.6467908,0.487194817 C27.5923061,0.462649085 27.5383307,0.43683811 27.4823184,0.41608811 L0.000152760736,27.7316918 L0.000152760736,80.879021 C0.000152760736,81.3785393 0.203579141,81.8304845 0.533033129,82.1579296 L27.6467908,55.2102588 Z" id="Fill-9" fill="#8CCB32"></path>
                <g id="Group-13" transform="translate(55.248466, 0.194088)">
                    <mask id="mask-6" fill="white">
                        <use xlink:href="#path-5"></use>
                    </mask>
                    <g id="Clip-12"></g>
                    <path d="M27.6914224,55.0159174 L27.6914224,27.5376034 L27.6914224,27.5360851 L27.6914224,1.86808201 C27.6914224,0.868792378 26.8764439,0.0587832317 25.8712782,0.0587832317 L1.86518313,0.0587832317 C0.860526687,0.0587832317 0.0465665644,0.867527134 0.0450389571,1.86529848 L0.0450389571,27.5376034 L27.6914224,55.0159174 Z" id="Fill-11" fill="#8CCB32" mask="url(#mask-6)"></path>
                </g>
                <path d="M82.9398887,55.2100058 L55.4579776,82.5245973 C55.7410942,82.6296125 56.042542,82.6878137 56.3503549,82.6878137 L81.1197445,82.6875607 C82.1249101,82.6875607 82.9398887,81.8775515 82.9398887,80.8785149 L82.9398887,55.2100058 Z" id="Fill-14" fill="#8CCB32"></path>
                <polygon id="Fill-16" fill="#D0D1D3" points="27.6502788 55.2094997 27.6467144 55.2094997 27.6467144 55.2097527"></polygon>
                <polygon id="Fill-18" fill="#D0D1D3" points="55.2932761 27.7308567 55.2930215 27.7308567 55.2930215 27.7313628"></polygon>
                <path d="M28.3941982,0.996025305 C28.1765141,0.779668598 27.9219129,0.61113811 27.646689,0.487144207 L27.646689,55.2102082 L54.5458178,81.9448119 C54.7637564,82.1614216 55.0183577,82.3324826 55.2935816,82.4569826 L55.2935816,27.7316412 L28.3941982,0.996025305 Z" id="Fill-20" fill="#00AE4D"></path>
            </g>
        </g>
    </g>
</svg>